<?xml version="1.0" standalone="no"?>
<!DOCTYPE svg PUBLIC "-//W3C//DTD SVG 20010904//EN"
 "http://www.w3.org/TR/2001/REC-SVG-20010904/DTD/svg10.dtd">
<svg version="1.0" xmlns="http://www.w3.org/2000/svg"
 width="1170.000000pt" height="1170.000000pt" viewBox="0 0 1170.000000 1170.000000"
 preserveAspectRatio="xMidYMid meet">

<g transform="translate(0.000000,1170.000000) scale(0.100000,-0.100000)"
fill="#000000" stroke="none">
<path d="M5655 11524 c-279 -12 -514 -37 -770 -80 -1660 -283 -3119 -1309
-3966 -2789 -89 -157 -257 -504 -327 -680 -145 -362 -242 -698 -311 -1075 -39
-211 -73 -473 -68 -514 3 -29 4 -28 5 7 3 55 25 42 34 -19 3 -27 6 -74 5 -104
l0 -55 -6 60 c-3 33 -6 -115 -5 -330 2 -397 9 -539 44 -815 195 -1542 1033
-2936 2315 -3852 804 -574 1718 -913 2735 -1014 206 -21 782 -24 975 -5 885
85 1626 318 2356 741 1070 621 1926 1609 2387 2756 271 673 402 1355 402 2096
0 620 -88 1174 -282 1768 -96 297 -289 726 -451 1008 -42 74 -74 139 -70 145
3 7 3 9 -2 5 -11 -11 -58 60 -49 74 4 7 3 8 -4 4 -13 -8 -36 30 -27 44 4 6 2
9 -3 8 -17 -5 -133 169 -118 175 8 3 13 -1 12 -11 -1 -11 6 -16 19 -15 11 1
14 0 8 -3 -22 -10 -14 -26 10 -19 12 3 18 3 12 -2 -14 -11 -17 -33 -6 -33 6 0
12 4 16 10 3 5 13 6 23 3 14 -5 15 -4 6 8 -6 8 -54 75 -107 149 -367 514 -819
962 -1337 1327 -833 586 -1793 931 -2815 1012 -137 11 -521 20 -640 15z m228
-477 c119 -55 198 -143 243 -270 l14 -39 -25 16 c-14 9 -36 23 -50 32 -20 13
-41 15 -113 9 -87 -7 -89 -6 -105 19 -28 42 -100 78 -171 83 -151 13 -273 -84
-292 -233 -4 -27 -3 -46 1 -42 4 4 16 3 26 -3 15 -8 19 -6 20 8 1 10 5 -21 9
-68 8 -100 33 -155 93 -203 31 -25 49 -31 101 -34 35 -2 80 1 99 7 34 12 99
72 109 102 4 11 39 14 159 17 l154 3 -27 -25 c-15 -13 -35 -30 -45 -38 -11 -7
-31 -34 -46 -59 -14 -26 -50 -67 -78 -93 -90 -81 -189 -111 -341 -104 -86 3
-104 8 -171 41 -75 37 -155 111 -180 165 -9 18 -16 21 -42 16 -31 -5 -32 -4
-49 48 -26 78 -32 228 -12 311 40 169 143 290 297 346 77 28 91 30 224 27 114
-3 124 -5 198 -39z m-1142 -162 c37 -119 37 -119 -10 -96 l-39 20 -98 -30
c-104 -33 -134 -50 -134 -81 0 -13 8 -18 30 -18 17 0 30 -1 30 -3 0 -4 36
-122 149 -496 39 -129 69 -236 67 -238 -2 -3 -18 3 -35 12 -29 14 -36 14 -107
-7 -80 -23 -93 -19 -94 24 0 26 -17 31 -39 9 -19 -19 -19 -19 -25 5 -4 14 -4
30 0 36 4 6 3 9 -2 6 -5 -4 -49 123 -98 280 l-89 286 22 14 c28 19 27 40 -3
52 -19 7 -51 1 -128 -22 -100 -29 -105 -32 -128 -72 l-24 -41 -27 90 c-15 50
-32 97 -37 106 -8 13 13 22 147 62 292 88 616 189 620 193 13 13 27 -11 52
-91z m2293 88 c4 -4 33 -13 65 -19 199 -41 371 -217 399 -410 5 -32 10 -63 12
-69 1 -5 2 -19 0 -30 l-1 -20 -9 20 c-7 17 -9 15 -9 -12 -1 -42 -31 -47 -32
-5 0 15 -9 -7 -20 -48 -52 -203 -166 -331 -334 -374 -187 -49 -392 25 -509
184 -38 52 -45 56 -64 46 -16 -8 -18 -15 -11 -28 6 -10 7 -18 4 -18 -13 0 -47
93 -61 166 -17 90 -8 170 31 279 58 160 216 298 368 321 23 4 49 10 57 15 19
10 104 12 114 2z m-1192 -229 c-7 -12 -11 -13 -17 -4 -4 7 -2 16 6 21 18 11
23 4 11 -17z m2438 -255 c0 -4 -19 -12 -43 -19 l-44 -12 -178 -364 c-98 -200
-186 -377 -197 -394 l-18 -30 -61 30 c-60 31 -61 31 -107 16 -25 -9 -47 -16
-48 -16 -4 0 106 228 299 623 l146 297 126 -62 c69 -35 125 -66 125 -69z
m-4698 -11 c20 -40 125 -239 232 -443 107 -203 190 -372 185 -373 -5 -2 -23 1
-40 7 -27 9 -39 6 -99 -24 l-68 -34 -78 140 c-52 93 -80 135 -86 127 -6 -11
-8 -11 -8 0 0 10 -5 10 -21 1 -15 -8 -19 -8 -15 0 4 6 3 11 -3 11 -9 0 -282
509 -283 527 0 6 229 132 242 133 3 0 22 -33 42 -72z m5248 -305 c100 -78 110
-89 109 -117 -1 -23 -3 -25 -6 -9 -4 19 -7 21 -29 11 -13 -6 -24 -16 -24 -22
0 -6 5 -5 12 2 20 20 26 14 22 -25 -3 -29 -2 -33 5 -18 12 25 12 -38 1 -135
-7 -61 -7 -62 -10 -20 l-2 45 -8 -54 c-5 -29 -11 -90 -15 -135 -3 -44 -11 -83
-17 -85 -7 -2 -6 -6 2 -11 8 -5 7 -9 -4 -13 -13 -5 -16 2 -17 36 -1 37 -2 35
-9 -18 -4 -33 -11 -91 -15 -128 l-7 -68 27 7 c16 4 30 2 34 -4 5 -9 312 367
353 431 3 6 53 -27 118 -79 61 -49 107 -90 103 -91 -5 -2 -28 -7 -50 -11 -40
-7 -50 -18 -313 -350 l-272 -343 -64 51 c-66 52 -82 57 -116 39 -11 -6 -22 -9
-24 -6 -9 8 46 648 57 668 5 10 14 19 20 19 18 0 5 32 -16 40 -11 4 -30 4 -42
-1 -12 -4 -92 -96 -178 -204 -86 -107 -159 -195 -162 -195 -3 0 -27 19 -54 41
-47 39 -53 41 -100 37 -27 -3 -48 -1 -47 3 3 9 621 798 626 799 1 0 52 -39
112 -87z m-5843 -136 c70 -44 123 -136 123 -212 0 -29 -3 -32 -22 -27 -13 3
-26 9 -29 14 -3 4 -16 -17 -28 -47 -13 -31 -21 -58 -19 -60 10 -10 67 -8 114
3 151 38 307 -98 303 -262 -1 -29 -4 -39 -6 -23 -3 21 -10 27 -29 27 -15 0
-24 -6 -24 -15 0 -31 -50 -111 -97 -156 -36 -35 -265 -221 -370 -301 -8 -6
-98 97 -288 331 -268 327 -279 339 -316 343 -37 3 -38 3 -21 -17 17 -20 17
-20 -6 -1 -12 11 -21 25 -20 32 4 18 394 328 453 361 100 55 205 59 282 10z
m6634 -24 c13 -16 12 -17 -3 -4 -10 7 -18 15 -18 17 0 8 8 3 21 -13z m214
-203 c38 -38 67 -70 64 -70 -2 0 -36 32 -74 70 -38 39 -67 70 -64 70 2 0 36
-31 74 -70z m-6205 -10 c6 -11 8 -20 6 -20 -3 0 -10 9 -16 20 -6 11 -8 20 -6
20 3 0 10 -9 16 -20z m5277 -87 c-2 -16 -4 -5 -4 22 0 28 2 40 4 28 2 -13 2
-35 0 -50z m-2607 -37 c880 -114 1621 -469 2239 -1071 522 -509 876 -1125
1051 -1825 77 -309 100 -503 105 -870 2 -168 1 -292 -2 -276 -3 21 -7 26 -13
16 -7 -11 -12 -11 -23 -2 -13 11 -16 1 -22 -70 -58 -721 -318 -1409 -748
-1984 -589 -788 -1457 -1317 -2417 -1473 -234 -38 -340 -46 -625 -46 -289 1
-420 11 -668 55 -1007 179 -1919 783 -2494 1650 -83 125 -160 255 -208 351
-20 38 -37 69 -40 69 -6 0 32 -84 57 -126 l21 -35 -22 -6 c-11 -3 -18 -9 -15
-14 3 -5 3 -9 0 -9 -12 0 -66 121 -60 132 4 6 3 8 -3 5 -18 -11 -158 315 -221
514 -250 783 -251 1604 -1 2375 296 913 918 1677 1764 2164 443 255 992 431
1500 480 61 5 124 12 140 14 70 10 597 -4 705 -18z m2597 -73 c-2 -16 -4 -5
-4 22 0 28 2 40 4 28 2 -13 2 -35 0 -50z m1173 -40 c0 -8 -9 0 -50 45 l-45 47
48 -45 c26 -24 47 -45 47 -47z m-7756 31 c3 -8 2 -12 -4 -9 -6 3 -10 10 -10
16 0 14 7 11 14 -7z m46 -56 c15 -21 17 -28 6 -19 -16 13 -41 51 -33 51 2 0
14 -15 27 -32z m7745 -18 c10 -11 16 -20 13 -20 -3 0 -13 9 -23 20 -10 11 -16
20 -13 20 3 0 13 -9 23 -20z m-1218 -37 c-3 -10 -5 -2 -5 17 0 19 2 27 5 18 2
-10 2 -26 0 -35z m1268 -23 c10 -11 16 -20 13 -20 -3 0 -13 9 -23 20 -10 11
-16 20 -13 20 3 0 13 -9 23 -20z m55 -62 l23 -33 -26 24 c-15 14 -27 28 -27
33 0 14 5 9 30 -24z m-8140 -128 c0 -4 -21 -31 -47 -61 -248 -284 -503 -647
-652 -929 -17 -34 -41 -57 -94 -90 -38 -25 -101 -74 -139 -109 l-70 -65 82
165 c192 384 439 756 715 1077 l97 112 54 -46 c30 -26 54 -50 54 -54z m7816
-63 c201 -238 397 -523 560 -814 69 -123 184 -350 184 -363 0 -3 -28 21 -62
53 -35 32 -95 79 -135 104 -69 44 -74 51 -131 153 -156 282 -418 650 -612 863
-28 30 -50 59 -50 65 0 6 24 31 53 57 l52 46 33 -38 c19 -21 67 -77 108 -126z
m374 131 c0 -6 -6 -5 -15 2 -8 7 -15 14 -15 16 0 2 7 1 15 -2 8 -4 15 -11 15
-16z m52 -70 c18 -23 28 -39 21 -35 -6 4 -26 26 -45 49 -18 23 -28 39 -21 35
6 -4 26 -26 45 -49z m62 -69 c-3 -5 0 -9 5 -9 6 0 11 -7 11 -15 0 -18 11 -19
30 -2 8 6 6 1 -5 -12 l-20 -24 22 5 c16 4 20 2 16 -8 -9 -23 -19 -16 -56 35
-28 39 -32 48 -16 44 10 -3 16 -9 13 -14z m76 -93 c0 -11 -19 -15 -25 -6 -3 5
1 10 9 10 9 0 16 -2 16 -4z m-8380 -913 c36 -8 67 -17 69 -19 2 -2 -9 -18 -23
-35 -39 -46 -89 -150 -120 -248 -32 -100 -51 -208 -71 -400 -8 -79 -19 -149
-25 -156 -5 -6 -8 -15 -5 -19 3 -3 -1 -2 -7 4 -7 5 -20 10 -30 10 -10 0 -18 5
-18 12 0 6 -3 8 -7 5 -3 -4 -13 -1 -21 6 -13 10 -14 9 -8 -1 4 -7 -17 2 -46
19 -29 17 -53 31 -53 30 0 -6 -44 15 -67 31 -16 11 -32 17 -37 14 -4 -3 -19 3
-31 14 l-23 20 23 62 c34 97 108 231 157 287 25 28 41 51 36 51 -26 0 -119
-68 -154 -113 -42 -52 -138 -238 -139 -267 0 -9 -3 -11 -8 -5 -10 15 -84 51
-96 47 -6 -2 -16 4 -22 13 -6 9 -16 15 -20 14 -5 -1 -22 3 -37 9 -16 7 -33 12
-38 12 -5 0 -9 4 -9 10 0 5 -3 9 -7 8 -5 0 -15 2 -23 5 -8 4 -28 11 -43 17
-16 5 -26 14 -23 18 2 4 -4 8 -14 9 -15 1 -22 -14 -40 -78 -47 -175 -34 -337
35 -455 l35 -59 -36 40 c-85 95 -121 215 -111 373 24 388 321 677 752 732 88
11 220 3 305 -17z m7940 6 c310 -57 556 -255 646 -520 70 -206 51 -413 -49
-546 -35 -47 -60 -60 -28 -15 26 37 57 133 65 204 10 80 -20 281 -49 327 -3 6
-17 3 -33 -5 -15 -7 -33 -14 -39 -14 -7 0 -13 -4 -13 -10 0 -5 -5 -10 -11 -10
-12 0 -92 -34 -134 -57 -80 -43 -89 -47 -93 -34 -3 8 -8 9 -17 1 -9 -8 -24 14
-63 92 -64 130 -113 194 -182 236 -30 17 -57 32 -62 32 -4 0 17 -32 46 -71 30
-39 69 -103 88 -142 55 -112 82 -213 55 -204 -6 2 -21 -7 -35 -20 -14 -13 -36
-23 -48 -23 -13 0 -24 -3 -24 -7 0 -8 -48 -33 -63 -33 -4 0 -33 -11 -63 -25
-30 -14 -63 -25 -74 -25 -25 0 -35 40 -50 190 -26 273 -81 467 -171 595 -21
31 -39 58 -39 60 0 5 137 34 185 39 54 5 188 -3 255 -15z m-9116 -992 l23 -70
-31 -126 -31 -126 -50 -6 c-28 -4 -62 -10 -77 -14 -16 -4 -28 -4 -28 0 0 36
85 373 133 530 l22 70 8 -94 c4 -52 18 -125 31 -164z m10055 -82 c45 -179 62
-257 57 -262 -2 -3 -21 0 -43 6 -21 6 -53 11 -71 11 -39 0 -42 6 -76 152 l-25
106 19 54 c22 63 40 162 41 228 0 41 3 36 34 -65 19 -60 48 -164 64 -230z
m-10542 73 c-3 -8 -6 -5 -6 6 -1 11 2 17 5 13 3 -3 4 -12 1 -19z m-60 -270
c-3 -7 -5 -2 -5 12 0 14 2 19 5 13 2 -7 2 -19 0 -25z m-30 -170 c-3 -7 -5 -2
-5 12 0 14 2 19 5 13 2 -7 2 -19 0 -25z m772 -18 c248 -26 448 -125 567 -283
154 -203 204 -505 121 -727 -22 -59 -65 -135 -73 -127 -3 2 7 40 22 83 62 181
35 456 -61 619 -21 37 -59 70 -52 46 2 -9 -53 -61 -65 -61 -5 0 -19 -9 -32
-21 -13 -12 -27 -20 -31 -20 -3 1 -14 -8 -23 -19 -9 -12 -25 -22 -34 -24 -9
-1 -29 -14 -44 -29 -15 -15 -33 -27 -41 -27 -8 0 -12 -4 -9 -9 4 -5 -1 -8 -9
-7 -8 1 -52 38 -97 82 -46 44 -109 99 -140 123 -58 41 -189 113 -196 107 -2
-2 33 -50 76 -107 108 -142 239 -327 220 -311 -14 11 -21 9 -46 -16 -17 -17
-33 -28 -36 -25 -3 3 -13 -2 -22 -11 -19 -20 -160 -116 -169 -116 -3 0 -16 -9
-28 -20 -12 -11 -27 -18 -34 -16 -7 3 -12 2 -12 -2 3 -19 -2 -25 -11 -12 -8
13 -10 12 -10 -2 0 -31 -28 -19 -58 25 -79 114 -167 352 -206 554 -26 138 -39
178 -63 205 -14 16 -12 19 18 38 89 54 239 97 384 110 44 4 83 8 86 9 4 0 52
-4 108 -9z m9748 -5 c96 -6 229 -43 316 -86 34 -17 63 -32 65 -33 1 -2 -8 -25
-21 -52 -14 -27 -32 -94 -42 -149 -38 -217 -130 -465 -213 -581 -27 -37 -64
-56 -59 -30 1 6 -4 10 -10 9 -7 -2 -13 2 -13 7 0 6 -6 10 -14 10 -23 0 -85 43
-92 64 -5 15 -8 16 -15 5 -6 -11 -9 -10 -15 4 -3 9 -12 17 -19 17 -8 0 -34 16
-59 35 -26 19 -51 35 -58 35 -6 0 -8 3 -5 7 10 9 -31 35 -43 28 -35 -21 65
133 202 314 44 57 77 105 74 108 -8 9 -134 -60 -201 -110 -37 -27 -105 -86
-153 -131 -47 -45 -83 -76 -79 -70 6 10 -13 25 -35 28 -4 1 -14 10 -23 21 -9
11 -13 14 -10 7 7 -14 -66 28 -97 56 -10 8 -18 12 -18 9 0 -8 -39 24 -83 66
-17 15 -36 26 -44 23 -19 -8 -79 -136 -98 -211 -40 -154 -38 -322 5 -441 36
-101 36 -101 17 -85 -29 24 -75 132 -93 221 -27 136 -9 303 48 450 104 265
348 432 667 459 47 4 97 6 111 5 14 -2 62 -6 107 -9z m-10530 -27 c-3 -8 -6
-5 -6 6 -1 11 2 17 5 13 3 -3 4 -12 1 -19z m-10 -85 c-3 -10 -5 -4 -5 12 0 17
2 24 5 18 2 -7 2 -21 0 -30z m-10 -70 c-3 -10 -5 -2 -5 17 0 19 2 27 5 18 2
-10 2 -26 0 -35z m-10 -80 c-3 -10 -5 -4 -5 12 0 17 2 24 5 18 2 -7 2 -21 0
-30z m-10 -105 c-2 -13 -4 -3 -4 22 0 25 2 35 4 23 2 -13 2 -33 0 -45z m1078
-268 c10 -11 16 -20 13 -20 -3 0 -13 9 -23 20 -10 11 -16 20 -13 20 3 0 13 -9
23 -20z m-718 -339 c13 -22 48 -66 78 -99 51 -55 55 -63 55 -108 0 -67 26
-326 45 -459 141 -952 566 -1880 1187 -2588 37 -43 68 -81 68 -85 0 -5 -24
-29 -54 -55 l-54 -46 -97 115 c-757 889 -1182 1962 -1250 3149 -3 55 -8 126
-11 158 -3 31 -2 57 3 57 4 0 18 -18 30 -39z m10489 -3 c-3 -24 -10 -115 -16
-204 -42 -692 -198 -1316 -481 -1926 -190 -410 -464 -840 -748 -1172 -42 -49
-85 -99 -96 -113 l-20 -24 -52 46 c-29 26 -53 51 -53 57 0 6 28 43 63 82 164
184 372 470 517 713 398 665 632 1380 705 2157 8 88 15 175 15 194 0 27 11 46
51 90 27 32 62 76 77 99 15 24 31 43 36 43 5 0 6 -19 2 -42z m-1441 -148 c-3
-5 -11 -10 -16 -10 -6 0 -7 5 -4 10 3 6 11 10 16 10 6 0 7 -4 4 -10z m12 -107
c-2 -16 -4 -5 -4 22 0 28 2 40 4 28 2 -13 2 -35 0 -50z m-10 -100 c-3 -10 -5
-4 -5 12 0 17 2 24 5 18 2 -7 2 -21 0 -30z m-10 -75 c-3 -8 -6 -5 -6 6 -1 11
2 17 5 13 3 -3 4 -12 1 -19z m-8118 -164 c234 -52 397 -244 426 -501 12 -105
-28 -236 -90 -293 l-28 -25 16 25 c67 106 64 309 -9 451 -30 60 -36 63 -65 38
-13 -11 -39 -30 -59 -42 -19 -11 -40 -26 -46 -32 -6 -6 -31 -19 -55 -30 -24
-11 -55 -30 -69 -42 -14 -13 -32 -23 -41 -23 -9 0 -19 -7 -23 -15 -4 -12 -19
-6 -72 31 -75 51 -244 138 -204 104 82 -68 152 -132 200 -185 30 -33 41 -49
25 -34 -31 26 -75 29 -75 4 0 -8 -9 -17 -20 -20 -11 -3 -26 -12 -33 -20 -7 -7
-40 -28 -73 -46 -32 -18 -62 -37 -65 -42 -10 -14 -117 213 -154 331 -28 85
-45 121 -71 149 l-35 36 33 34 c73 76 226 144 365 162 75 10 126 6 222 -15z
m8906 0 c86 -17 215 -79 278 -134 l47 -42 -38 -43 c-29 -33 -46 -69 -71 -147
-34 -106 -121 -297 -145 -317 -10 -8 -19 -6 -39 9 -14 11 -32 20 -40 20 -8 0
-17 9 -20 20 -3 13 -14 20 -30 20 -15 0 -35 11 -49 28 -13 15 -31 28 -39 30
-7 2 -18 7 -22 11 -10 10 153 165 196 188 18 9 27 18 20 20 -16 6 -121 -48
-220 -112 -63 -42 -83 -50 -87 -39 -3 8 -22 22 -42 30 -21 9 -60 31 -88 50
-28 19 -54 34 -58 34 -5 0 -21 12 -37 26 -16 14 -44 34 -64 44 l-34 19 -26
-52 c-42 -85 -61 -164 -61 -262 0 -77 4 -99 27 -150 l27 -60 -35 38 c-121 137
-85 435 73 609 88 95 187 147 331 172 81 14 134 12 246 -10z m-8449 -1155 c63
-24 132 -91 169 -166 43 -88 120 -421 102 -440 -16 -15 -32 22 -52 124 -25
125 -64 253 -76 253 -5 0 -19 -9 -31 -19 -13 -11 -34 -29 -47 -40 -13 -11 -32
-23 -42 -26 -11 -4 -19 -11 -19 -16 0 -5 -5 -9 -12 -9 -6 0 -22 -9 -34 -20
l-21 -21 -34 27 c-19 15 -55 48 -81 73 -28 26 -48 39 -48 31 0 -18 51 -127 73
-154 14 -19 12 -56 -3 -56 -4 0 -19 -11 -34 -25 -14 -13 -26 -22 -26 -19 0 3
-15 -6 -33 -20 -19 -15 -39 -26 -45 -26 -18 0 -71 120 -88 202 -16 71 -16 84
-1 155 8 43 25 103 37 135 l21 56 72 12 c40 7 77 14 82 16 21 7 122 -9 171
-27z m7962 9 c29 -6 56 -16 61 -22 5 -6 19 -47 31 -91 12 -44 27 -97 33 -117
15 -56 -14 -182 -65 -280 l-30 -57 -60 41 c-33 22 -69 49 -80 60 l-21 21 22
36 c26 42 56 106 66 140 5 17 -13 6 -75 -48 -45 -39 -86 -71 -90 -71 -4 0 -15
9 -25 20 -10 11 -23 20 -29 20 -6 0 -33 20 -60 45 -26 25 -52 45 -57 45 -4 0
-12 8 -18 18 -8 15 -12 12 -25 -19 -15 -37 -56 -193 -76 -291 -7 -34 -17 -59
-27 -62 -9 -4 -17 -5 -19 -3 -6 5 54 289 75 358 28 90 87 178 146 217 91 60
179 71 323 40z m-7458 -58 c6 -11 8 -20 6 -20 -3 0 -10 9 -16 20 -6 11 -8 20
-6 20 3 0 10 -9 16 -20z m40 -70 c6 -11 8 -20 6 -20 -3 0 -10 9 -16 20 -6 11
-8 20 -6 20 3 0 10 -9 16 -20z m523 -1195 c53 -44 97 -83 97 -87 0 -4 -20 -8
-44 -8 l-43 0 -139 -182 c-77 -100 -183 -240 -236 -310 -105 -137 -119 -172
-69 -166 24 2 52 -15 151 -92 126 -98 131 -107 59 -109 -18 -1 -38 -13 -58
-36 -17 -19 -33 -35 -36 -35 -5 0 -246 194 -314 253 -30 26 -40 29 -83 25 -37
-4 -48 -2 -44 7 2 7 147 198 322 423 200 260 321 409 329 404 6 -4 55 -43 108
-87z m5944 -256 c341 -412 393 -475 393 -480 0 -2 -20 -3 -45 -1 -41 4 -49 0
-99 -42 l-54 -47 -158 203 c-88 111 -164 208 -170 216 -16 22 -74 19 -90 -3
-26 -36 -18 -47 31 -43 37 3 43 1 30 -9 -13 -9 -14 -16 -6 -31 16 -31 192
-544 188 -548 -2 -2 -18 1 -36 7 -31 11 -37 9 -92 -30 l-60 -42 -217 157
c-320 233 -303 223 -342 184 -30 -30 -26 -50 10 -50 28 0 37 -13 179 -252 83
-139 148 -254 146 -256 -2 -2 -20 1 -41 7 -35 10 -43 7 -100 -24 l-63 -35 -19
27 c-10 16 -94 153 -186 306 -92 152 -170 277 -172 277 -3 0 0 -9 6 -20 10
-19 4 -25 -22 -21 -4 0 -5 -6 -2 -14 4 -8 9 -13 13 -11 4 3 8 -5 8 -16 3 -31
-7 -17 -96 132 -45 76 -75 137 -69 139 6 2 -1 9 -16 15 -26 11 -23 13 99 84
l126 73 301 -191 c165 -105 303 -189 305 -186 3 3 -38 152 -91 331 -54 180
-96 333 -94 340 4 16 210 196 220 192 4 -1 132 -153 285 -338z m-5204 -261
c31 -18 57 -36 57 -40 0 -4 -20 -13 -44 -19 -42 -10 -47 -16 -97 -103 -78
-135 -411 -700 -416 -706 -2 -2 -32 11 -66 29 -59 31 -64 33 -106 21 -23 -6
-44 -10 -46 -8 -2 2 20 44 49 93 29 50 135 232 236 405 100 173 198 341 217
373 l35 57 61 -35 c34 -19 88 -50 120 -67z m5108 -25 c13 -16 12 -17 -3 -4
-10 7 -18 15 -18 17 0 8 8 3 21 -13z m57 -68 c42 -58 35 -58 -12 0 -21 25 -34
45 -29 45 4 -1 23 -21 41 -45z m-4527 -176 c189 -67 363 -128 387 -136 l43
-15 -49 -23 c-40 -19 -52 -30 -62 -59 -6 -20 -17 -36 -24 -36 -7 0 -49 14 -94
30 -89 32 -129 37 -154 18 -9 -7 -80 -184 -158 -393 -78 -209 -143 -381 -144
-382 -2 -2 -31 7 -66 19 -61 20 -66 21 -109 5 -25 -9 -46 -15 -47 -14 -2 2 34
101 199 547 49 135 90 250 90 257 0 6 11 16 24 22 47 22 28 39 -91 82 l-88 32
-44 -21 c-24 -12 -44 -18 -44 -14 0 24 67 202 76 202 6 0 166 -54 355 -121z
m3159 108 c0 -2 45 -154 101 -338 74 -247 101 -352 104 -404 2 -38 2 -60 -1
-47 -5 20 -7 21 -22 6 -15 -15 -16 -15 -23 2 -6 14 -8 9 -8 -18 -2 -94 -83
-219 -178 -274 -106 -63 -256 -82 -352 -45 -66 25 -112 62 -157 126 -31 45
-40 53 -55 45 -26 -15 -42 -12 -35 6 3 8 2 13 -3 10 -5 -3 -11 2 -13 12 -3 9
-47 158 -98 330 -51 172 -90 315 -87 318 11 11 258 71 262 64 3 -5 47 -150 99
-324 91 -306 113 -358 159 -391 49 -34 177 -5 212 49 39 59 33 91 -74 440 -56
181 -100 331 -98 332 2 2 55 26 118 53 100 43 149 59 149 48z m1458 -47 c7
-11 11 -20 9 -20 -2 0 -12 9 -22 20 -10 11 -14 20 -9 20 5 0 15 -9 22 -20z
m-1000 -175 c-3 -3 -9 2 -12 12 -6 14 -5 15 5 6 7 -7 10 -15 7 -18z m-2823
-101 c55 -9 104 -19 108 -23 4 -4 -10 -20 -31 -34 l-38 -27 -27 -162 c-15 -90
-27 -166 -27 -169 0 -10 45 -5 52 6 5 6 8 3 8 -6 0 -11 12 -18 38 -22 60 -9
322 -30 326 -26 2 2 12 97 22 212 l17 207 129 0 128 0 0 -106 c0 -58 -3 -103
-7 -101 -5 3 -7 -58 -5 -135 2 -77 -1 -138 -5 -135 -4 3 -8 -43 -7 -101 0 -59
-1 -79 -3 -44 -4 59 -5 61 -21 45 -16 -16 -17 -15 -22 18 -3 19 -9 -29 -13
-106 -4 -77 -10 -186 -14 -242 l-6 -103 -76 0 c-71 0 -79 -2 -114 -31 l-37
-31 5 54 c3 29 10 123 15 208 9 148 11 156 35 175 30 25 31 31 4 45 -30 17
-428 49 -461 38 -34 -12 -34 -14 -73 -228 -17 -96 -35 -175 -40 -175 -6 1 -43
4 -83 9 -69 8 -75 7 -113 -19 -34 -22 -40 -24 -35 -8 3 10 37 180 75 378 39
198 84 427 101 509 16 82 30 151 30 154 0 2 15 2 33 -2 17 -4 77 -14 132 -22z
m1310 -334 c25 -179 50 -354 55 -390 17 -126 20 -156 10 -135 -8 16 -9 14 -7
-14 1 -22 -3 -36 -12 -39 -10 -3 -12 0 -8 12 4 9 2 16 -3 16 -5 0 -11 8 -13
18 -6 20 2 -82 9 -115 4 -20 -2 -22 -87 -34 -80 -11 -94 -16 -119 -42 l-28
-31 -6 35 c-4 19 -29 218 -56 444 -27 226 -54 446 -60 489 -5 44 -8 81 -5 84
8 8 270 39 277 33 4 -3 27 -152 53 -331z m-1208 258 c-3 -8 -6 -5 -6 6 -1 11
2 17 5 13 3 -3 4 -12 1 -19z m-20 -120 c-3 -7 -5 -2 -5 12 0 14 2 19 5 13 2
-7 2 -19 0 -25z m-10 -60 c-3 -8 -6 -5 -6 6 -1 11 2 17 5 13 3 -3 4 -12 1 -19z
m-20 -120 c-3 -7 -5 -2 -5 12 0 14 2 19 5 13 2 -7 2 -19 0 -25z m1340 -550
c-3 -8 -6 -5 -6 6 -1 11 2 17 5 13 3 -3 4 -12 1 -19z"/>
<path d="M6923 10770 c-118 -24 -206 -125 -231 -267 -9 -52 -9 -52 18 -58 25
-5 29 -12 35 -60 9 -78 52 -140 118 -170 28 -14 70 -27 93 -31 128 -19 247 97
261 257 7 74 -2 118 -32 162 -15 23 -18 34 -9 30 8 -3 14 -10 14 -16 0 -12 14
0 16 14 1 5 2 12 3 16 0 4 8 -2 16 -13 8 -10 15 -14 15 -8 0 6 -18 32 -40 57
-61 69 -180 106 -277 87z"/>
<path d="M3610 9921 c0 -6 4 -13 10 -16 6 -3 7 1 4 9 -7 18 -14 21 -14 7z"/>
<path d="M8866 9915 c-3 -49 -9 -121 -12 -160 -4 -38 -4 -68 -1 -65 7 7 30
285 25 301 -3 8 -8 -26 -12 -76z"/>
<path d="M8912 9945 c0 -16 2 -22 5 -12 2 9 2 23 0 30 -3 6 -5 -1 -5 -18z"/>
<path d="M2725 9841 c-59 -28 -175 -128 -175 -151 0 -15 7 -20 29 -20 23 0 38
-12 77 -62 27 -34 52 -66 55 -71 8 -11 145 96 159 124 16 29 11 64 -12 95 -19
25 -19 27 -2 13 15 -13 23 -14 42 -4 l22 12 -21 27 c-44 56 -105 69 -174 37z"/>
<path d="M2975 9554 c-33 -17 -115 -79 -157 -119 -38 -35 -37 -65 1 -65 23 0
38 -12 77 -62 27 -34 52 -66 56 -72 7 -11 100 57 155 113 37 38 42 73 18 109
-12 17 -13 21 -2 17 7 -3 24 -2 38 3 l24 9 -41 42 c-37 37 -47 41 -90 41 -27
0 -62 -7 -79 -16z"/>
<path d="M5620 9454 c-172 -16 -346 -39 -470 -64 -652 -130 -1249 -433 -1735
-883 -640 -593 -1031 -1353 -1135 -2207 -7 -52 -10 -108 -7 -125 4 -27 4 -27
6 7 1 29 4 36 16 32 8 -4 16 -14 16 -23 1 -9 5 2 9 24 l7 40 2 -42 c0 -24 -3
-43 -7 -43 -5 0 -7 -28 -6 -62 2 -52 1 -56 -5 -23 l-7 40 -5 -43 c-2 -24 -2
-45 2 -47 3 -3 9 -109 12 -237 14 -580 131 -1052 382 -1547 335 -662 839
-1173 1518 -1540 l77 -42 0 185 c0 165 2 186 17 195 10 5 16 11 13 13 -17 15
-69 48 -73 48 -3 0 -7 -8 -9 -17 -7 -31 -38 41 -38 86 0 63 70 131 135 131 41
0 95 -30 116 -64 22 -37 25 -76 5 -76 -8 0 -17 -11 -20 -25 -4 -14 -24 -38
-46 -53 -27 -18 -39 -33 -37 -47 1 -11 8 -19 15 -18 9 2 12 -44 12 -197 0
-182 2 -200 18 -209 42 -23 245 -101 347 -134 247 -80 405 -116 680 -154 184
-25 676 -25 855 0 274 39 469 83 690 157 1211 403 2113 1428 2360 2680 24 125
49 308 42 315 -3 3 -39 5 -79 5 -77 0 -113 -11 -113 -34 0 -18 -30 -44 -67
-56 -29 -11 -56 -4 -115 28 -3 1 -8 -5 -10 -15 -6 -28 -38 39 -38 79 0 71 65
138 133 138 43 0 94 -25 113 -57 26 -40 28 -40 107 -39 86 1 85 -1 86 159 l1
107 -245 0 c-183 0 -247 -3 -255 -12 -5 -7 -19 -25 -30 -40 -11 -15 -36 -32
-54 -38 -34 -11 -45 -8 -120 28 -5 3 -7 -5 -3 -17 7 -30 0 -26 -23 12 -39 64
-15 154 51 189 64 34 137 17 179 -42 l21 -30 243 0 243 0 -4 118 c-3 64 -6
123 -8 130 -3 8 -30 12 -89 12 -56 0 -89 -4 -96 -12 -5 -7 -19 -25 -30 -40
-11 -15 -36 -32 -55 -38 -31 -10 -41 -9 -77 9 -40 19 -65 20 -53 0 4 -5 4 -9
1 -9 -3 0 -12 13 -21 30 -46 89 22 200 125 200 43 0 96 -31 112 -65 11 -24 15
-25 95 -25 97 0 91 -14 68 156 -67 483 -229 948 -469 1348 -36 60 -63 113 -60
118 3 5 1 7 -4 6 -5 -2 -31 27 -56 65 -26 37 -42 67 -37 67 5 0 12 -7 15 -16
4 -10 12 -14 22 -10 15 6 15 4 3 -11 -12 -15 -12 -16 2 -11 13 5 16 2 12 -13
-6 -22 5 -24 29 -5 16 12 12 19 -39 92 -353 491 -791 868 -1319 1132 -373 187
-770 305 -1199 358 -123 15 -547 27 -645 18z m-100 -979 l0 -435 185 0 185 0
0 435 0 435 285 0 285 0 0 -448 0 -449 133 -12 c298 -28 510 -103 702 -249
186 -141 314 -342 365 -572 22 -101 38 -296 23 -287 -6 4 -9 -13 -7 -46 2 -45
2 -47 -5 -17 -8 32 -8 32 -10 8 -1 -20 -5 -26 -16 -22 -8 4 -15 14 -16 23 0 9
-11 -31 -23 -89 -28 -126 -50 -189 -104 -295 -106 -211 -279 -381 -493 -485
-98 -47 -109 -56 -109 -86 0 -20 5 -24 30 -24 18 0 29 -5 27 -12 -1 -6 41 -34
93 -61 331 -172 541 -452 615 -823 21 -106 18 -158 -11 -162 -19 -3 -22 -13
-32 -110 -6 -59 -19 -136 -28 -172 -111 -431 -471 -702 -994 -750 -63 -5 -125
-10 -137 -10 -13 0 -32 -9 -43 -20 -19 -19 -20 -33 -20 -450 l0 -430 -222 0
-222 0 -33 -32 -33 -32 0 431 0 431 30 10 c33 12 32 35 -1 52 -10 6 -109 10
-223 10 l-205 0 -20 -26 c-20 -26 -21 -37 -21 -435 l0 -409 -217 0 -217 0 -33
-32 -33 -32 0 432 0 432 25 6 c31 8 32 28 3 48 -20 14 -80 16 -459 16 l-437 0
-31 -35 -31 -36 0 331 c0 181 -1 333 -2 338 -2 4 105 9 237 12 l240 5 3 1507
c2 1495 2 1508 22 1520 11 7 20 18 20 25 0 27 -43 33 -242 33 l-203 0 -36 -35
c-20 -19 -39 -31 -43 -28 -3 4 -6 156 -6 340 l0 333 465 2 465 3 0 433 0 432
290 0 290 0 0 -435z m1418 245 c24 -11 50 -32 60 -50 l17 -30 275 0 275 0 287
-287 288 -288 0 -91 c0 -87 1 -93 25 -108 39 -26 65 -75 64 -121 -1 -22 -3
-32 -6 -22 -6 24 -22 21 -33 -7 -23 -60 -97 -83 -157 -47 -34 21 -45 19 -36
-7 5 -13 3 -14 -6 -6 -7 6 -18 28 -25 49 -20 56 -5 103 43 146 l41 37 0 76 c0
48 4 76 11 76 6 0 9 4 7 10 -1 5 -122 129 -268 275 l-264 265 -264 0 -265 0
-41 -45 c-36 -38 -48 -45 -80 -45 -21 0 -51 8 -67 17 -32 19 -49 12 -29 -12 7
-8 10 -15 6 -15 -17 0 -46 69 -46 112 0 53 33 101 85 124 40 18 52 17 103 -6z
m-2407 -205 c43 -23 69 -71 68 -125 -1 -25 -4 -35 -6 -22 -6 31 -18 28 -33 -8
-7 -17 -22 -37 -34 -45 -27 -20 -96 -19 -124 1 -26 18 -49 10 -31 -12 6 -8 9
-14 5 -14 -3 0 -13 11 -22 25 -14 21 -14 28 -3 41 23 28 -9 34 -206 34 l-190
1 -268 -273 c-240 -245 -294 -310 -249 -301 9 2 12 -30 12 -121 0 -116 1 -125
20 -131 47 -15 96 -125 55 -125 -8 0 -15 -6 -15 -14 0 -8 -13 -28 -29 -45 -24
-26 -37 -31 -73 -31 -24 0 -54 7 -66 16 -26 18 -49 10 -31 -12 6 -8 9 -14 5
-14 -3 0 -15 15 -26 33 -38 62 -15 162 45 189 25 11 25 11 25 153 l0 141 286
292 286 292 202 0 203 0 11 25 c26 57 120 82 183 50z m3066 -277 l173 -172 0
-88 0 -88 45 -43 c35 -34 45 -51 45 -75 0 -21 -5 -32 -14 -32 -8 0 -17 -9 -21
-20 -3 -10 -20 -31 -36 -45 -37 -30 -82 -33 -124 -5 -20 13 -33 16 -41 9 -17
-14 -34 19 -34 68 0 44 28 94 65 119 23 15 25 22 25 93 l0 76 -155 155 c-85
85 -155 162 -155 172 0 19 26 48 43 48 6 0 89 -77 184 -172z m779 110 l29 -33
-32 29 c-31 28 -38 36 -30 36 2 0 16 -15 33 -32z m129 -138 c10 -11 16 -20 13
-20 -3 0 -13 9 -23 20 -10 11 -16 20 -13 20 3 0 13 -9 23 -20z m50 -60 c10
-11 16 -20 13 -20 -3 0 -13 9 -23 20 -10 11 -16 20 -13 20 3 0 13 -9 23 -20z
m58 -65 c23 -32 17 -32 -13 0 -13 14 -19 25 -14 25 5 0 17 -12 27 -25z m38
-52 c13 -16 12 -17 -3 -4 -10 7 -18 15 -18 17 0 8 8 3 21 -13z m43 -50 c4 -9
13 -13 22 -9 14 5 15 4 5 -8 -10 -11 -8 -17 6 -25 10 -6 13 -11 7 -11 -6 0
-25 18 -43 40 -17 22 -25 37 -17 34 8 -3 17 -12 20 -21z m-385 -481 c41 -20
67 -55 76 -99 5 -28 4 -31 -13 -26 -15 3 -21 -2 -26 -21 -4 -15 -24 -39 -46
-54 -39 -27 -53 -62 -25 -62 13 0 15 -42 15 -318 0 -308 -1 -319 -19 -318 -13
1 -100 -79 -244 -221 -123 -123 -227 -220 -230 -216 -24 23 5 60 203 258 l210
211 0 312 c0 201 4 312 10 312 21 0 9 19 -25 39 -33 19 -54 14 -39 -11 5 -7 3
-8 -5 -3 -18 10 -41 69 -41 102 0 62 73 133 135 133 17 0 45 -8 64 -18z m408
-24 c26 -27 36 -45 39 -79 2 -24 1 -38 -2 -31 -9 19 -18 14 -37 -20 -10 -18
-33 -43 -52 -56 -39 -25 -45 -47 -15 -55 20 -5 20 -14 20 -397 0 -379 -1 -392
-19 -387 -14 3 -71 -48 -231 -208 -198 -198 -227 -235 -184 -235 12 0 14 -41
14 -263 l0 -262 210 -210 210 -210 0 -373 c0 -372 0 -373 -20 -367 -17 5 -51
-23 -185 -157 -95 -93 -165 -171 -165 -182 0 -12 5 -16 14 -13 18 7 26 -14 25
-61 -1 -20 -3 -29 -6 -19 -7 25 -19 21 -33 -13 -24 -57 -87 -79 -145 -50 -39
20 -60 18 -49 -3 3 -7 -4 -1 -15 12 -15 17 -21 37 -21 73 0 89 62 144 152 136
l48 -5 0 401 c0 289 -3 405 -11 413 -9 9 -7 10 10 6 11 -3 21 -1 21 3 0 18
-282 289 -287 277 -10 -26 -24 -12 -21 20 2 25 8 33 27 35 20 3 54 -26 188
-160 l163 -163 0 -360 c0 -198 0 -364 0 -370 0 -5 50 40 110 100 l110 110 0
342 c0 222 4 343 10 343 29 0 -7 42 -187 222 -167 167 -201 197 -220 192 l-23
-6 0 303 0 304 210 210 210 210 0 392 c0 255 4 393 10 393 20 0 9 18 -22 38
-23 15 -36 18 -44 11 -18 -15 -37 26 -36 78 1 119 144 175 229 91z m-4392
-298 c52 -32 91 -135 46 -123 -13 3 -20 -2 -25 -20 -3 -14 -24 -40 -46 -57
-41 -32 -52 -60 -25 -60 13 0 15 -60 15 -478 l0 -479 40 -31 c36 -30 60 -78
60 -122 0 -12 -2 -13 -9 -1 -10 16 -31 6 -31 -14 0 -8 -20 -31 -45 -52 -45
-38 -57 -63 -30 -63 13 0 15 -61 15 -485 l0 -484 30 -16 c39 -20 58 -50 65
-105 5 -35 4 -42 -5 -30 -10 13 -13 12 -23 -5 -31 -50 -65 -75 -104 -75 -22 0
-48 7 -59 15 -25 19 -60 20 -48 2 5 -7 1 -5 -8 6 -45 49 -21 159 41 192 l31
16 0 494 c0 323 3 495 10 495 21 0 9 19 -25 39 -31 18 -35 18 -43 4 -7 -12
-13 -6 -26 29 -14 37 -16 52 -7 86 11 37 59 92 82 92 5 0 9 199 9 495 0 323 3
495 10 495 19 0 10 19 -20 40 -25 18 -34 19 -45 10 -13 -10 -18 -6 -31 25 -22
54 -11 100 36 147 33 33 43 38 85 38 30 0 60 -7 80 -20z m-649 -100 c1 -8 2
-39 2 -67 l2 -53 155 0 155 0 -2 -657 c-1 -362 -4 -624 -7 -583 -12 150 -31
-217 -31 -582 l0 -348 -558 0 c-475 0 -561 -2 -578 -15 -10 -8 -22 -15 -26
-15 -5 0 -8 495 -8 1100 l0 1100 160 0 160 0 0 70 0 70 287 -2 c248 -3 288 -5
289 -18z m3991 -342 c-3 -7 -5 -2 -5 12 0 14 2 19 5 13 2 -7 2 -19 0 -25z
m-5310 -320 c-3 -7 -5 -2 -5 12 0 14 2 19 5 13 2 -7 2 -19 0 -25z m-10 -60
c-3 -7 -5 -2 -5 12 0 14 2 19 5 13 2 -7 2 -19 0 -25z m-10 -80 c-3 -7 -5 -2
-5 12 0 14 2 19 5 13 2 -7 2 -19 0 -25z m925 -1888 c24 -7 49 -25 70 -50 l31
-40 86 0 85 0 68 -67 68 -67 0 -152 0 -152 36 -27 c40 -30 65 -79 63 -122 -1
-16 -3 -21 -6 -11 -5 19 -33 13 -33 -6 0 -19 -52 -64 -82 -71 -17 -4 -40 0
-65 11 -21 10 -45 17 -55 16 -11 -2 -20 8 -28 32 -17 53 2 108 50 147 l40 32
0 133 c0 97 3 134 13 137 7 3 -9 26 -43 61 l-54 56 -88 0 c-87 0 -88 0 -103
-30 -17 -33 -61 -60 -97 -60 -13 0 -37 9 -55 20 -22 13 -34 16 -39 8 -13 -20
-34 24 -34 70 0 68 34 114 100 135 23 8 32 8 72 -3z m4737 -628 c42 -22 71
-74 70 -122 -1 -19 -3 -27 -6 -17 -7 26 -17 21 -35 -16 -21 -45 -76 -71 -121
-59 -17 5 -39 7 -47 4 -8 -3 -102 -92 -209 -199 l-194 -193 -217 0 -218 0 -36
-45 c-45 -54 -86 -66 -137 -39 -19 10 -43 18 -53 18 -25 1 -40 46 -32 91 22
115 170 151 243 60 l28 -35 200 0 200 0 188 188 c103 103 185 191 182 194 -13
13 -6 100 10 124 39 60 120 80 184 46z m-1188 -699 c13 -16 12 -17 -3 -4 -10
7 -18 15 -18 17 0 8 8 3 21 -13z"/>
<path d="M5362 7407 c-30 -31 -28 -43 8 -50 l30 -6 0 -616 0 -616 453 3 452 4
72 26 c189 69 327 178 390 308 88 183 81 431 -17 592 -16 26 -23 45 -16 42 7
-3 23 -1 35 4 22 8 22 9 -17 58 -94 119 -243 212 -406 254 -74 19 -110 20
-521 20 l-442 0 -21 -23z m1363 -287 c3 -5 2 -10 -4 -10 -5 0 -13 5 -16 10 -3
6 -2 10 4 10 5 0 13 -4 16 -10z m-441 -85 c99 -30 181 -97 213 -173 13 -32 30
-192 17 -164 -3 6 -9 10 -14 7 -5 -3 -15 1 -23 10 -13 12 -16 9 -27 -32 -16
-64 -85 -133 -163 -162 -53 -19 -77 -21 -279 -21 l-222 0 -38 -37 -38 -37 0
312 0 312 263 0 c203 0 273 -4 311 -15z"/>
<path d="M5367 5630 c-15 -12 -27 -31 -27 -44 0 -18 5 -22 30 -20 l30 2 0
-614 0 -615 458 3 c452 3 458 3 522 27 243 88 392 242 435 449 28 132 14 287
-38 404 -21 48 -23 59 -12 68 8 7 19 9 25 5 13 -8 3 -25 -13 -21 -7 1 -9 1 -4
-1 4 -3 5 -8 2 -13 -3 -4 6 -3 19 3 l24 12 -22 40 c-11 22 -55 74 -96 115 -82
83 -192 147 -325 191 -68 21 -86 22 -525 26 -454 5 -455 4 -483 -17z m963
-396 c84 -40 120 -71 153 -133 20 -36 29 -68 32 -118 2 -37 2 -58 -1 -45 -3
13 -13 22 -25 22 -10 0 -19 6 -20 13 0 6 -8 -19 -18 -58 -16 -60 -25 -75 -68
-115 -79 -72 -115 -80 -376 -80 l-221 0 -38 -37 -38 -37 0 313 0 312 278 -3
277 -3 65 -31z"/>
<path d="M5342 4947 l-2 -608 23 3 22 3 0 540 c0 297 -1 462 -2 368 -3 -144
-6 -173 -18 -173 -12 0 -15 37 -18 238 -1 130 -3 -37 -5 -371z"/>
<path d="M5383 5465 c0 -22 2 -30 4 -17 2 12 2 30 0 40 -3 9 -5 -1 -4 -23z"/>
<path d="M7390 8342 c0 -4 66 -74 148 -155 131 -131 172 -164 172 -139 0 4
-66 74 -148 155 -131 131 -172 164 -172 139z"/>
<path d="M2906 6844 c-20 -19 -20 -30 -1 -38 13 -5 15 -78 15 -573 0 -343 -4
-563 -9 -558 -5 6 -11 21 -14 35 -2 14 -5 -167 -6 -402 l-1 -427 480 -1 480 0
0 970 c0 890 1 971 16 977 15 6 15 8 -2 20 -14 10 -110 13 -480 13 -407 0
-464 -2 -478 -16z m773 -371 c2 -65 1 -66 -17 -50 -16 15 -48 17 -275 17 -253
0 -256 0 -271 -22 -15 -21 -16 -18 -16 50 l0 72 289 0 288 0 2 -67z m-1 -417
l4 -68 -23 21 c-22 20 -32 21 -268 21 -237 0 -245 -1 -268 -22 l-23 -21 0 71
0 72 288 -2 287 -3 3 -69z m-12 -368 c-27 -38 -29 -48 -13 -66 15 -16 0 -17
-250 -14 -238 3 -267 1 -284 -14 -18 -17 -19 -15 -19 49 l0 67 291 0 291 0
-16 -22z m8 -397 c3 -4 -3 -16 -14 -26 -11 -10 -20 -29 -20 -42 l0 -23 -254 0
c-252 0 -255 0 -270 -22 -15 -21 -16 -18 -16 50 l0 72 284 0 c157 0 287 -4
290 -9z"/>
<path d="M2260 6085 c0 -32 2 -56 4 -54 8 7 10 98 3 105 -4 4 -7 -19 -7 -51z"/>
<path d="M2251 5874 c0 -11 3 -14 6 -6 3 7 2 16 -1 19 -3 4 -6 -2 -5 -13z"/>
<path d="M2456 4057 c3 -10 9 -15 12 -12 3 3 0 11 -7 18 -10 9 -11 8 -5 -6z"/>
<path d="M5919 1593 c-13 -16 -12 -17 4 -4 16 13 21 21 13 21 -2 0 -10 -8 -17
-17z"/>
<path d="M202 6274 c-1 -28 -4 -73 -7 -100 -5 -40 -4 -45 5 -25 6 14 9 59 7
100 -2 55 -4 62 -5 25z"/>
<path d="M221 6183 c0 -5 4 -17 9 -28 8 -18 9 -17 9 8 1 15 -3 27 -9 27 -5 0
-10 -3 -9 -7z"/>
<path d="M490 3545 c0 -5 5 -17 10 -25 5 -8 10 -10 10 -5 0 6 -5 17 -10 25 -5
8 -10 11 -10 5z"/>
<path d="M521 3479 c-1 -8 6 -24 15 -35 15 -19 15 -19 6 1 -5 11 -12 27 -15
35 -5 13 -6 13 -6 -1z"/>
<path d="M570 3365 c0 -17 103 -224 180 -360 787 -1406 2122 -2425 3685 -2814
269 -67 555 -115 875 -148 237 -24 820 -24 1060 0 641 65 1200 206 1767 447
137 58 463 216 463 225 0 3 -53 -21 -118 -54 -540 -271 -1069 -444 -1665 -545
-561 -96 -1189 -106 -1742 -30 -845 116 -1643 409 -2355 864 -619 396 -1172
919 -1605 1520 -157 217 -352 535 -454 737 -56 113 -91 173 -91 158z"/>
<path d="M10439 2273 c-13 -16 -12 -17 4 -4 16 13 21 21 13 21 -2 0 -10 -8
-17 -17z"/>
<path d="M10399 2223 c-13 -16 -12 -17 4 -4 16 13 21 21 13 21 -2 0 -10 -8
-17 -17z"/>
<path d="M10314 2118 l-19 -23 23 19 c21 18 27 26 19 26 -2 0 -12 -10 -23 -22z"/>
<path d="M10254 2048 l-29 -33 33 29 c30 28 37 36 29 36 -2 0 -16 -15 -33 -32z"/>
<path d="M10189 1973 l-24 -28 28 24 c15 14 27 26 27 28 0 8 -8 1 -31 -24z"/>
<path d="M10055 1828 l-80 -83 83 80 c45 44 82 81 82 82 0 8 -11 -3 -85 -79z"/>
<path d="M9865 1638 l-80 -83 83 80 c45 44 82 81 82 82 0 8 -11 -3 -85 -79z"/>
<path d="M9719 1503 l-34 -38 38 34 c34 33 42 41 34 41 -2 0 -19 -17 -38 -37z"/>
<path d="M9644 1438 l-29 -33 33 29 c17 17 32 31 32 33 0 8 -8 1 -36 -29z"/>
<path d="M9579 1383 l-24 -28 28 24 c15 14 27 26 27 28 0 8 -8 1 -31 -24z"/>
<path d="M9485 1309 c-76 -62 -88 -79 -17 -24 55 43 80 66 70 65 -2 -1 -25
-19 -53 -41z"/>
<path d="M9278 1152 c-133 -100 -166 -129 -63 -57 89 62 185 135 185 141 0 6
4 9 -122 -84z"/>
<path d="M9018 972 c-78 -51 -128 -89 -88 -67 44 25 180 115 180 120 0 7 5 10
-92 -53z"/>
<path d="M8762 815 c-148 -86 -191 -114 -113 -75 61 31 261 150 261 155 0 7 9
12 -148 -80z"/>
</g>
</svg>
