<?xml version="1.0" encoding="utf-8"?>
<!-- Generator: Adobe Illustrator 27.8.0, SVG Export Plug-In . SVG Version: 6.00 Build 0)  -->
<svg version="1.2" baseProfile="tiny" id="Layer_1" xmlns="http://www.w3.org/2000/svg" xmlns:xlink="http://www.w3.org/1999/xlink"
	 x="0px" y="0px" width="2118.647px" height="317.562px" viewBox="0 0 2118.647 317.562" overflow="visible" xml:space="preserve">
<g>
	<g>
		<g>
			<path fill="#7ED957" d="M175.469,27.364c99.563,22.022,122.912,26.85,131.045,29.366c1.915,0.535,3.868,1.699,4.524,3.683
				c0.742,2.285,1.104,4.666,1.596,7.012c3.268,17.516,20.908,120.901,20.919,120.963c0.927,6.146,5.291,19.736-7.158,31.725
				c-20.496,19.608-41.052,39.155-61.562,58.75c-13.654,12.819-18.398,14.068-36.563,10.052
				c-98.726-21.926-102.601-22.412-122.938-27.538c-2.488-0.759-5.696-1.216-6.844-3.916c-1.246-3.657-1.729-7.521-2.501-11.294
				c-7.232-41.078-14.097-82.221-21.203-123.321c-1.928-9.215,1.449-19.306,8.435-25.593c21.919-20.914,43.834-41.833,65.77-62.726
				C155.084,28.358,163.668,25.031,175.469,27.364z M178.143,44.454c0.595,5.041,1.276,10.073,2.117,15.076
				c17.817,3.893,81.658,17.755,97.077,21.617c2.592,0.806,5.934,1.315,7.141,4.11c1.078,3.195,1.514,6.568,2.195,9.862
				c2.151,11.717,14.437,83.389,16.158,92.89c4.929,0.983,9.832,2.135,14.782,3.023c-6.026-34.973-17.374-102.291-20.643-120.393
				C257.359,61.927,217.777,53.082,178.143,44.454z M155.215,50.663c-5.336,5.215-8.391,6.962-6.559,16.434
				c6.762,39.668,13.562,79.337,20.302,119.009c0.349,1.803,0.466,3.661,1.048,5.412c0.44,0.358,1.022,0.453,1.561,0.608
				c40.289,8.849,80.548,17.835,120.851,26.632c2.786,0.574,5.636,1.535,8.508,0.94c2.661-0.509,5.032-2.005,6.882-3.954
				c2.751-2.76,5.74-5.278,8.357-8.172c-5.987-1.558-98.077-21.468-120.618-26.904c-2.734-0.668-5.468-1.341-8.133-2.255
				c-1.492-0.5-2.868-1.608-3.303-3.169c-1.074-3.471-1.57-7.085-2.277-10.643c-3.756-21.065-7.283-42.169-10.923-63.252
				c-3.26-18.694-6.313-37.422-9.694-56.094C159.031,46.847,157.211,48.856,155.215,50.663z M124.783,79.723
				c-4.102,3.981-7.229,6.921-6.072,13.454c7.072,41.635,14.192,83.261,21.29,124.887c0.16,0.651,0.237,1.376,0.673,1.915
				c7.906,1.956,120.136,26.613,121.079,26.835c3.934,0.742,9.72,3.153,15.321-1.841c3.683-3.532,7.477-6.951,11.044-10.599
				c-37.523-8.473-103.42-22.532-125.827-28.267c-2.126-0.617-4.627-1.143-5.903-3.139c-1.091-2.488-1.401-5.235-1.988-7.874
				c-3.664-19.915-15.276-88.663-21.259-123.278C130.325,74.419,127.573,77.093,124.783,79.723z M183.072,76.563
				c0.707,5.132,1.69,10.22,2.523,15.33c4.512,1.007,48.641,10.451,65.102,14.588c2.501,0.793,5.684,1.216,6.964,3.851
				c1.255,3.118,1.6,6.507,2.303,9.776c3.652,20.276,6.964,40.608,10.703,60.867c5.045,1.138,10.095,2.264,15.158,3.303
				c-1.484-7.809-15.167-88.233-15.175-88.276C267.882,95.251,272.611,96.298,183.072,76.563z M98.962,104.368
				c-4.674,4.552-9.763,7.991-8.4,15.231c7.141,42.001,14.343,83.989,21.484,125.991c-0.004,0.897,0.647,1.436,1.501,1.544
				c40.039,8.814,80.061,17.719,120.109,26.486c3.771,0.743,10.131,3.375,15.865-2.29c2.993-2.915,6.11-5.696,9.034-8.676
				c-3.734-1.031-7.559-1.703-11.328-2.587c-29.761-6.565-88.053-19.318-107.552-23.963c-3.299-0.85-6.641-1.548-9.858-2.678
				c-1.479-0.509-2.894-1.552-3.364-3.105c-0.988-3.1-1.423-6.343-2.078-9.521c-2.99-16.638-18.09-105.115-20.738-120.669
				C101.881,101.315,100.501,102.936,98.962,104.368z M188.635,109.064c0.806,5.528,1.807,11.031,2.825,16.524
				c11.108,2.583,22.312,4.748,33.321,7.736c2.428,0.612,5.257,1.807,5.748,4.584c2.749,11.502,5.425,31.37,6.77,35.805
				c5.438,1.039,10.802,2.436,16.257,3.389c-3.001-18.107-6.227-36.18-9.254-54.282c-0.142-0.53-0.155-1.143-0.539-1.561
				c-0.806-0.285-1.647-0.44-2.475-0.621C223.728,116.83,206.216,112.781,188.635,109.064z M194.417,142.816
				c1.143,7.421,2.454,14.817,3.803,22.204c7.322,1.626,14.636,3.29,21.984,4.795c-0.007-0.044-3.524-21.644-4.058-22.238
				C214.764,147.154,196.547,143.2,194.417,142.816z"/>
		</g>
	</g>
</g>
<g>
	<path fill="#7ED957" d="M379.891,249.087v-198.8h46.292l82.076,135.184h-24.424l80.372-135.184h46.292l0.284,198.8h-51.688
		l-0.568-120.132h8.804l-59.924,100.536h-24.992l-61.628-100.536h10.792v120.132H379.891z"/>
	<path fill="#7ED957" d="M651.107,249.087v-198.8h56.232v198.8H651.107z"/>
	<path fill="#7ED957" d="M747.38,249.087v-198.8h46.292l109.34,132.344h-21.868V50.287h55.096v198.8h-46.292L780.324,116.743h21.868
		v132.344H747.38z"/>
	<path fill="#7ED957" d="M1018.316,249.087V94.875h-61.06V50.287h178.068v44.588h-60.776v154.212H1018.316z"/>
	<path fill="#7ED957" d="M1205.47,249.087l-64.468-198.8h57.936l54.244,172.104h-29.252l57.084-172.104h51.688l53.96,172.104
		h-28.116l55.948-172.104h53.676l-64.468,198.8h-60.208l-46.008-146.26h15.904l-47.428,146.26H1205.47z"/>
	<path fill="#7ED957" d="M1548.255,205.351h103.944v43.736h-159.324v-198.8h155.632v43.736h-100.252V205.351z M1544.279,127.251
		h92.3v41.748h-92.3V127.251z"/>
	<path fill="#7ED957" d="M1683.723,249.087v-198.8h101.104c26.314,0,45.91,4.828,58.788,14.484
		c12.873,9.656,19.312,22.152,19.312,37.488c0,10.224-2.654,19.219-7.952,26.98c-5.303,7.766-12.877,13.823-22.72,18.176
		c-9.847,4.358-21.397,6.532-34.648,6.532l5.396-13.632c13.818,0,25.986,2.13,36.494,6.39s18.646,10.464,24.424,18.602
		c5.773,8.143,8.662,17.892,8.662,29.252c0,17.04-6.958,30.388-20.874,40.044s-34.319,14.484-61.202,14.484H1683.723z
		 M1739.103,208.475h47.144c9.842,0,17.227-1.655,22.152-4.97c4.921-3.31,7.384-8.378,7.384-15.194
		c0-6.816-2.463-11.879-7.384-15.194c-4.925-3.31-12.31-4.97-22.152-4.97h-51.12v-38.908h42.6c9.465,0,16.565-1.606,21.3-4.828
		c4.73-3.217,7.1-7.952,7.1-14.2c0-6.625-2.37-11.502-7.1-14.626c-4.734-3.124-11.834-4.686-21.3-4.686h-38.624V208.475z"/>
	<path fill="#7ED957" d="M1957.78,253.063c-13.823,0-27.646-1.66-41.464-4.97c-13.823-3.311-25.658-8.187-35.5-14.626l20.164-42.032
		c7.952,5.112,16.8,9.088,26.554,11.928c9.749,2.84,19.263,4.26,28.542,4.26c9.656,0,17.324-1.797,23.004-5.396
		c5.68-3.594,8.52-8.706,8.52-15.336c0-6.057-2.37-10.792-7.1-14.2c-4.735-3.408-12.496-5.112-23.288-5.112h-23.572v-35.216
		l53.392-57.936l5.396,19.596h-101.956V50.287h143.988v35.5l-53.392,57.368l-27.548-15.62h15.336
		c24.61,0,43.354,5.538,56.232,16.614c12.873,11.076,19.312,25.325,19.312,42.742c0,11.174-3.08,21.824-9.23,31.95
		c-6.155,10.131-15.576,18.367-28.258,24.708C1994.225,249.89,1977.846,253.063,1957.78,253.063z"/>
</g>
</svg>
